<svg xmlns="http://www.w3.org/2000/svg" xmlns:xlink="http://www.w3.org/1999/xlink" viewBox="0 0 591.84 713.74"><defs><style>.cls-1{font-size:109px;font-family:AzonixRegular, Azonix;}.cls-2{letter-spacing:-0.05em;}.cls-3{letter-spacing:-0.04em;}.cls-4{fill:url(#linear-gradient);}</style><linearGradient id="linear-gradient" x1="62.36" y1="295.79" x2="529.48" y2="295.79" gradientUnits="userSpaceOnUse"><stop offset="0" stop-color="#1dcdfe"/><stop offset="1" stop-color="#33f6c6"/></linearGradient></defs><g id="Layer_2" data-name="Layer 2"><g id="Layer_1-2" data-name="Layer 1"><text class="cls-1" transform="translate(0 693.79)">T<tspan class="cls-2" x="87.2" y="0">E</tspan><tspan x="168.4" y="0">CHS</tspan><tspan class="cls-3" x="424.77" y="0">P</tspan><tspan x="499.54" y="0">O</tspan></text><path class="cls-4" d="M340.76,0,62.36,159.27V485.85L257.77,591.59,529.48,433.65V107.08ZM480,190.06,343.57,273a39,39,0,0,0-22.46-3.73c-25.36,3-47.78,26.57-50.09,52.7s16.36,44.9,41.71,41.92c23.16-2.72,43.83-22.66,49-46L480,244.27V405.55l-232.12,134-140-73.79V410.9l143.21,76.29L391.85,405A35.54,35.54,0,0,0,408,406.18c23-3.38,43.85-25.48,46.63-49.36s-13.6-40.51-36.58-37.13c-13.39,2-21.53,11.41-30.33,22.75l-4.46,6.69L252.42,431,107.87,350.67V195.41L335.4,57.55,480,135.18Z"/></g></g></svg>